<svg version="1.1" id="Layer_1" xmlns="http://www.w3.org/2000/svg" xmlns:xlink="http://www.w3.org/1999/xlink" x="0px" y="0px"
	 width="100%" viewBox="0 0 1024 1024" enable-background="new 0 0 1024 1024" xml:space="preserve">
<path fill="#FEFEFE" opacity="1.000000" stroke="none" 
	d="
M657.000000,1025.000000 
	C438.000000,1025.000000 219.500000,1025.000000 1.000000,1025.000000 
	C1.000000,683.666687 1.000000,342.333344 1.000000,1.000000 
	C342.333344,1.000000 683.666687,1.000000 1025.000000,1.000000 
	C1025.000000,342.333344 1025.000000,683.666687 1025.000000,1025.000000 
	C902.500000,1025.000000 780.000000,1025.000000 657.000000,1025.000000 
M358.508026,552.937805 
	C358.751892,552.690430 358.841400,552.396118 359.231781,551.495300 
	C363.733459,543.595581 367.885101,535.604736 366.039032,525.083130 
	C365.996582,515.389587 365.954132,505.696014 366.088531,495.079224 
	C366.048309,476.390442 366.008087,457.701630 366.147430,438.093506 
	C366.084503,433.391815 366.021606,428.690155 366.138702,423.067291 
	C366.138702,402.140594 366.138702,381.213928 366.138702,359.801575 
	C321.663757,359.801575 277.775177,359.801575 233.036942,359.801575 
	C233.036942,354.216949 233.036942,349.110321 233.236938,343.083038 
	C233.153748,334.389099 233.070557,325.695160 233.171860,316.078918 
	C233.171860,308.882507 233.171860,301.686066 233.171860,294.276062 
	C235.814362,294.107635 237.905792,293.974335 240.925858,293.978241 
	C383.978516,293.988892 527.031128,294.012207 670.083801,293.999695 
	C699.389465,293.997131 728.695068,293.860565 758.927856,293.933594 
	C767.632568,293.920471 776.337280,293.907349 785.094971,293.986755 
	C785.094971,293.986755 785.181824,293.925049 785.362000,294.694672 
	C781.548401,303.747681 777.734802,312.800690 773.408752,322.331543 
	C769.957153,330.226654 766.505554,338.121765 762.588074,346.536377 
	C761.481873,348.953400 760.066956,351.281097 759.336060,353.806732 
	C757.974182,358.512360 755.295959,360.012512 750.298096,359.982880 
	C711.511963,359.752930 672.723816,359.840912 633.936340,359.844727 
	C580.332703,359.850006 526.729065,359.844849 473.125763,359.983307 
	C471.402527,359.987732 468.742126,361.072754 468.112518,362.406464 
	C463.507629,372.161133 459.310486,382.108276 454.463837,392.439697 
	C449.085571,404.237335 443.707275,416.034973 438.329010,427.832642 
	C438.783936,428.173096 439.238831,428.513580 439.693756,428.854034 
	C452.105865,419.561066 464.518005,410.268097 477.566620,400.748077 
	C482.436523,396.457214 487.152924,391.970520 492.252655,387.972900 
	C494.261902,386.397949 497.123596,385.068451 499.602417,385.059235 
	C546.720154,384.884460 593.838684,384.920044 640.957031,384.920074 
	C684.745544,384.920074 728.534058,384.954620 772.322266,384.847565 
	C774.147034,384.843109 777.022278,384.053406 777.620483,382.785828 
	C781.445251,374.682068 784.769043,366.341888 788.762939,357.625336 
	C793.215210,347.167999 797.667480,336.710632 802.642334,325.771942 
	C805.137756,319.927155 807.633179,314.082367 810.659546,307.765137 
	C816.245850,294.894806 821.832153,282.024475 827.621826,268.685577 
	C619.444214,268.685577 412.203552,268.685577 204.866470,268.685577 
	C204.866470,278.415100 204.866470,287.704773 204.674866,297.916595 
	C204.763733,304.944611 204.852600,311.972656 204.738892,319.919891 
	C204.810974,327.613708 204.883072,335.307495 204.762360,343.922150 
	C204.844482,355.615570 204.926605,367.309021 204.819519,379.885742 
	C204.889877,381.476379 204.960251,383.067017 205.042953,384.936554 
	C221.189133,384.936554 236.951218,384.958649 252.713226,384.931671 
	C280.786072,384.883606 308.858826,384.805817 337.727112,385.009674 
	C338.037659,386.533356 338.583313,388.051697 338.618286,389.581665 
	C338.773834,396.384430 338.783112,403.190582 338.621674,410.747559 
	C338.720337,425.163879 338.818970,439.580170 338.712646,454.915833 
	C338.771973,466.942383 338.831268,478.968964 338.671906,491.912811 
	C338.759613,501.607788 338.847321,511.302765 338.726379,521.914795 
	C338.798950,527.602356 338.871521,533.289917 338.684967,539.744507 
	C338.684967,556.987854 338.684967,574.231201 338.684967,591.474548 
	C339.048401,591.572937 339.411835,591.671326 339.775269,591.769714 
	C345.900757,578.878235 352.026276,565.986694 358.064240,553.070374 
	C358.064240,553.070374 358.084473,553.159058 358.508026,552.937805 
M432.698334,518.889771 
	C436.531952,510.071808 440.365570,501.253815 444.735107,491.957886 
	C451.554565,476.888550 458.373993,461.819183 465.475311,446.126953 
	C455.335114,446.126953 446.182556,446.246063 437.036346,446.057648 
	C434.117432,445.997528 432.434296,446.908020 431.297729,449.580902 
	C427.133850,459.373138 422.839813,469.109985 418.109894,479.341003 
	C413.404694,490.227509 408.699493,501.113983 403.485443,512.480591 
	C398.961151,522.972412 394.436859,533.464294 389.395111,544.410339 
	C384.235199,556.265198 379.075317,568.119995 373.398346,580.422607 
	C368.548523,591.515686 363.698730,602.608704 358.319580,614.173584 
	C352.126984,628.083374 345.934357,641.993225 339.299713,656.610535 
	C339.280945,673.619385 339.262177,690.628235 339.092346,708.484253 
	C339.154266,722.662598 339.216217,736.841003 339.126465,751.498474 
	C339.179199,751.657471 339.231934,751.816528 339.138702,752.638733 
	C339.196716,753.084351 339.254730,753.530029 339.369781,754.643555 
	C340.238495,754.700012 341.107208,754.756531 342.891724,754.953125 
	C346.600006,754.905762 350.308319,754.858398 354.937744,754.973816 
	C360.617035,754.923767 366.296326,754.873718 372.904968,754.966125 
	C378.608582,754.918640 384.312225,754.871094 390.939056,754.982544 
	C411.616119,754.916199 432.293182,754.849854 453.723633,754.924255 
	C454.484802,754.872498 455.245941,754.820740 456.548340,754.858887 
	C456.722107,754.570496 456.895844,754.282104 457.259705,753.859131 
	C457.259705,753.859131 457.236786,753.627380 457.733429,753.228455 
	C457.807678,752.819458 457.881927,752.410400 458.397064,751.447388 
	C462.297089,742.390198 466.197113,733.332947 470.519958,723.992249 
	C470.592407,723.672363 470.664825,723.352478 471.051025,722.580688 
	C471.100739,722.222168 471.150452,721.863586 471.737854,721.018433 
	C479.951233,702.386719 488.164581,683.755066 496.873474,664.668152 
	C500.237366,657.242004 503.705597,649.860779 506.925293,642.372620 
	C508.803528,638.004272 510.284027,633.465027 512.304688,628.407227 
	C516.253662,620.026245 520.202637,611.645264 524.676392,602.786743 
	C528.417969,594.193054 532.159546,585.599365 536.338989,576.439514 
	C537.032654,574.930298 538.030396,573.485046 538.363403,571.900085 
	C539.407898,566.929138 542.284546,565.843933 547.205383,565.898438 
	C573.812012,566.193054 600.423401,566.057129 627.033203,566.058716 
	C650.981995,566.060181 674.930969,566.084351 698.879211,565.963135 
	C700.586975,565.954529 703.308289,565.304749 703.837219,564.158752 
	C709.469238,551.955566 714.753174,539.591736 720.666260,526.798462 
	C722.800232,521.943726 724.972656,517.105469 727.060425,512.230957 
	C731.768066,501.239655 736.433960,490.230499 741.636536,478.758179 
	C746.315796,468.078369 750.995056,457.398560 755.904358,446.193756 
	C730.028137,446.193756 705.224365,446.197205 680.420654,446.193054 
	C620.298767,446.183044 560.176880,446.159485 500.055054,446.208649 
	C498.358673,446.210052 495.944824,446.395386 495.081268,447.471039 
	C488.583130,455.564789 482.390289,463.903656 475.693451,472.702667 
	C480.379120,472.702667 484.166138,472.702057 487.953156,472.702728 
	C560.399170,472.715546 632.845154,472.716644 705.291077,472.795013 
	C707.615356,472.797546 709.938660,473.592285 711.791809,474.571136 
	C705.750977,488.326416 699.710144,502.081696 693.151794,516.294312 
	C690.196899,522.980042 687.094604,529.606323 684.362244,536.381775 
	C683.318481,538.969849 682.028809,539.755737 679.246399,539.740051 
	C658.442078,539.622620 637.636536,539.724304 616.831421,539.727112 
	C586.206360,539.731323 555.581116,539.673401 524.956543,539.796143 
	C523.192261,539.803223 520.502747,540.719238 519.836182,542.025146 
	C517.208679,547.172607 515.217590,552.644958 512.524536,558.509155 
	C507.075867,571.017639 501.627167,583.526062 495.741547,596.595825 
	C491.485382,606.392944 487.229218,616.190002 482.505157,626.491821 
	C476.931580,639.192200 471.358002,651.892639 465.253540,665.069397 
	C463.344269,669.314453 461.410706,673.548767 459.530182,677.806580 
	C453.024200,692.536682 446.536774,707.275024 439.795319,722.220276 
	C439.795319,722.220276 439.853546,722.539246 439.389923,722.880737 
	C439.306335,723.245361 439.222748,723.610046 438.700073,724.514343 
	C438.125061,725.981934 437.550018,727.449524 436.178864,729.139526 
	C434.814697,729.236816 433.450531,729.334045 431.155701,729.245483 
	C411.092194,729.296631 391.028656,729.347778 370.502136,729.221741 
	C370.502136,729.221741 370.034698,729.386841 369.177216,729.208191 
	C368.218842,728.741821 367.260468,728.275452 366.616272,726.996399 
	C366.449463,723.821411 366.282684,720.646423 366.408905,716.858765 
	C366.311127,715.751160 366.213379,714.643494 366.498932,712.712280 
	C366.441193,701.541870 366.383484,690.371460 366.573883,678.275269 
	C366.559265,673.531189 366.544617,668.787109 366.872772,663.500366 
	C367.233063,662.006531 367.593353,660.512695 368.272430,658.402527 
	C368.850861,657.848083 369.666382,657.400757 369.972260,656.723267 
	C374.713165,646.222351 379.387970,635.691589 384.612274,624.712280 
	C389.783325,613.219299 394.954376,601.726257 400.672729,589.790100 
	C407.054321,575.530640 413.435944,561.271118 420.216949,546.408447 
	C424.201843,537.399902 428.186737,528.391418 432.698334,518.889771 
z"/>
<path fill="#06D0A9" opacity="1.000000" stroke="none" 
	d="
M758.000732,293.785767 
	C728.695068,293.860565 699.389465,293.997131 670.083801,293.999695 
	C527.031128,294.012207 383.978516,293.988892 240.414383,293.564453 
	C239.675186,292.719971 239.543198,292.185699 239.205719,291.873688 
	C230.855408,284.153107 221.997025,290.694427 213.399017,291.210571 
	C211.768814,291.308411 210.402039,294.104156 208.704041,295.374908 
	C207.625107,296.182373 206.158981,296.472412 204.866470,296.994476 
	C204.866470,287.704773 204.866470,278.415100 204.866470,268.685577 
	C412.203552,268.685577 619.444214,268.685577 827.621826,268.685577 
	C821.832153,282.024475 816.245850,294.894806 810.243652,307.682983 
	C803.976440,298.781891 794.456421,296.574646 785.181824,293.925049 
	C785.181824,293.925049 785.094971,293.986755 785.000793,293.569092 
	C781.305481,292.100922 777.670105,290.094757 774.111145,290.222168 
	C768.661560,290.417328 762.582703,289.182739 758.000732,293.785767 
z"/>
<path fill="#03B5B0" opacity="1.000000" stroke="none" 
	d="
M788.257629,358.079529 
	C784.769043,366.341888 781.445251,374.682068 777.620483,382.785828 
	C777.022278,384.053406 774.147034,384.843109 772.322266,384.847565 
	C728.534058,384.954620 684.745544,384.920074 640.957031,384.920074 
	C593.838684,384.920044 546.720154,384.884460 499.602417,385.059235 
	C497.123596,385.068451 494.261902,386.397949 492.252655,387.972900 
	C487.152924,391.970520 482.436523,396.457214 476.906799,400.830627 
	C471.788788,397.644836 468.037628,393.165161 461.786011,393.072327 
	C459.514069,393.038635 457.251526,392.372345 454.984680,391.994659 
	C459.310486,382.108276 463.507629,372.161133 468.112518,362.406464 
	C468.742126,361.072754 471.402527,359.987732 473.125763,359.983307 
	C526.729065,359.844849 580.332703,359.850006 633.936340,359.844727 
	C672.723816,359.840912 711.511963,359.752930 750.298096,359.982880 
	C755.295959,360.012512 757.974182,358.512360 759.336060,353.806732 
	C760.066956,351.281097 761.481873,348.953400 763.197510,346.282654 
	C764.720764,347.841278 765.634583,349.653625 766.826416,352.017426 
	C767.450867,351.247406 768.511353,350.365601 769.016052,349.235535 
	C770.405518,346.124054 772.218933,345.778656 775.358154,347.040558 
	C779.979858,348.898315 784.088623,350.904175 785.702881,356.130371 
	C785.960266,356.963593 787.376892,357.438782 788.257629,358.079529 
z"/>
<path fill="#079CB7" opacity="1.000000" stroke="none" 
	d="
M712.262451,474.017700 
	C709.938660,473.592285 707.615356,472.797546 705.291077,472.795013 
	C632.845154,472.716644 560.399170,472.715546 487.953156,472.702728 
	C484.166138,472.702057 480.379120,472.702667 475.693451,472.702667 
	C482.390289,463.903656 488.583130,455.564789 495.081268,447.471039 
	C495.944824,446.395386 498.358673,446.210052 500.055054,446.208649 
	C560.176880,446.159485 620.298767,446.183044 680.420654,446.193054 
	C705.224365,446.197205 730.028137,446.193756 755.904358,446.193756 
	C750.995056,457.398560 746.315796,468.078369 741.159485,478.689026 
	C736.312744,477.018250 732.101562,473.954651 727.172424,476.069885 
	C721.674133,478.429321 716.787048,477.944214 712.262451,474.017700 
z"/>
<path fill="#0178BD" opacity="1.000000" stroke="none" 
	d="
M512.990295,557.996704 
	C515.217590,552.644958 517.208679,547.172607 519.836182,542.025146 
	C520.502747,540.719238 523.192261,539.803223 524.956543,539.796143 
	C555.581116,539.673401 586.206360,539.731323 616.831421,539.727112 
	C637.636536,539.724304 658.442078,539.622620 679.246399,539.740051 
	C682.028809,539.755737 683.318481,538.969849 684.362244,536.381775 
	C687.094604,529.606323 690.196899,522.980042 693.725464,516.252319 
	C696.504761,521.660889 701.361755,522.160217 706.295837,523.109436 
	C711.000977,524.014648 715.527649,525.847168 720.132812,527.272034 
	C714.753174,539.591736 709.469238,551.955566 703.837219,564.158752 
	C703.308289,565.304749 700.586975,565.954529 698.879211,565.963135 
	C674.930969,566.084351 650.981995,566.060181 627.033203,566.058716 
	C600.423401,566.057129 573.812012,566.193054 547.205383,565.898438 
	C542.284546,565.843933 539.407898,566.929138 538.363403,571.900085 
	C538.030396,573.485046 537.032654,574.930298 535.779297,576.680664 
	C534.076172,575.812683 532.904602,574.730774 531.794495,573.589111 
	C528.557983,570.260742 525.568604,566.647278 522.052002,563.650574 
	C519.371765,561.366577 516.034973,559.853027 512.990295,557.996704 
z"/>
<path fill="#01B0B0" opacity="1.000000" stroke="none" 
	d="
M338.845276,409.995483 
	C338.783112,403.190582 338.773834,396.384430 338.618286,389.581665 
	C338.583313,388.051697 338.037659,386.533356 337.000122,384.636902 
	C316.835632,384.176483 297.397949,384.116821 277.960754,383.986115 
	C271.095428,383.939972 263.983307,385.219391 257.876221,380.533691 
	C257.290405,380.084229 256.298004,380.070435 255.485001,380.026154 
	C248.307434,379.635406 241.129211,379.250366 233.948303,378.928253 
	C224.301926,378.495453 214.650986,377.433014 205.008728,379.002441 
	C204.926605,367.309021 204.844482,355.615570 205.270172,343.459717 
	C208.318298,342.905731 211.209991,341.981659 213.333511,342.877808 
	C219.878891,345.640076 226.362015,345.553314 233.036942,344.003693 
	C233.036942,349.110321 233.036942,354.216949 233.036942,359.801575 
	C277.775177,359.801575 321.663757,359.801575 366.138702,359.801575 
	C366.138702,381.213928 366.138702,402.140594 365.787292,423.293976 
	C362.964264,418.587341 361.241760,412.925537 354.542938,412.018494 
	C349.314941,411.310547 344.078156,410.667389 338.845276,409.995483 
z"/>
<path fill="#0040C1" opacity="1.000000" stroke="none" 
	d="
M470.097168,724.275757 
	C466.197113,733.332947 462.297089,742.390198 457.936279,751.929810 
	C457.395905,752.817322 457.316345,753.222351 457.236786,753.627380 
	C457.236786,753.627380 457.259705,753.859131 456.947083,753.993652 
	C456.352661,754.270569 456.143524,754.484192 456.007111,754.769043 
	C455.245941,754.820740 454.484802,754.872498 453.021851,754.602600 
	C432.141022,754.199890 411.962006,754.112183 391.782898,754.070984 
	C391.194366,754.069824 390.604858,754.561584 390.015839,754.823547 
	C384.312225,754.871094 378.608582,754.918640 372.119385,754.637817 
	C365.561432,754.476685 359.789001,754.643860 354.016602,754.811035 
	C350.308319,754.858398 346.600006,754.905762 342.238770,754.666382 
	C340.828156,754.244934 340.070465,754.110291 339.312744,753.975586 
	C339.254730,753.530029 339.196716,753.084351 339.346619,752.216064 
	C339.727386,751.457275 339.635254,751.199280 339.278137,751.019348 
	C339.216217,736.841003 339.154266,722.662598 339.564392,708.171631 
	C341.427155,709.163269 342.817871,710.467468 344.412384,711.962891 
	C350.155151,710.167786 356.005463,708.339111 361.855774,706.510437 
	C361.815887,706.012268 361.776031,705.514099 361.736145,705.015991 
	C362.511108,705.855408 363.286072,706.694885 364.700470,708.226990 
	C364.823669,705.762695 364.967987,704.182922 364.971191,702.602966 
	C364.994171,691.320679 364.928864,680.037720 365.060089,668.756897 
	C365.078430,667.180115 366.017242,665.614075 366.529968,664.043030 
	C366.544617,668.787109 366.559265,673.531189 366.309052,679.103149 
	C366.067993,691.132629 366.091797,702.334290 366.115601,713.535889 
	C366.213379,714.643494 366.311127,715.751160 366.217316,717.646240 
	C366.117859,721.558777 366.209991,724.683899 366.302124,727.809082 
	C367.260468,728.275452 368.218842,728.741821 369.694885,729.421753 
	C370.212585,729.635376 370.637787,729.695374 370.637787,729.695374 
	C370.637787,729.695374 370.965149,729.398865 370.965149,729.398865 
	C391.028656,729.347778 411.092194,729.296631 431.902527,729.531494 
	C434.091248,729.517395 435.533142,729.217285 436.975006,728.917114 
	C437.550018,727.449524 438.125061,725.981934 439.136047,724.063721 
	C439.665863,723.255127 439.759705,722.897217 439.853546,722.539246 
	C439.853546,722.539246 439.795319,722.220276 440.185730,722.314941 
	C444.767517,728.042297 449.048706,728.224426 451.118591,722.288513 
	C452.829498,717.381958 456.881104,716.247925 460.540009,714.506714 
	C462.063232,713.781860 464.939941,714.297791 466.369171,715.364380 
	C468.384613,716.868469 469.627167,719.408142 471.200195,721.505066 
	C471.150452,721.863586 471.100739,722.222168 470.708252,722.965942 
	C470.161011,723.625916 470.071564,723.934143 470.097168,724.275757 
z"/>
<path fill="#0249C2" opacity="1.000000" stroke="none" 
	d="
M471.468994,721.261719 
	C469.627167,719.408142 468.384613,716.868469 466.369171,715.364380 
	C464.939941,714.297791 462.063232,713.781860 460.540009,714.506714 
	C456.881104,716.247925 452.829498,717.381958 451.118591,722.288513 
	C449.048706,728.224426 444.767517,728.042297 440.309235,722.209839 
	C446.536774,707.275024 453.024200,692.536682 459.530182,677.806580 
	C461.410706,673.548767 463.344269,669.314453 465.684143,665.185303 
	C468.059814,666.039856 470.049774,667.507324 471.942200,667.390808 
	C480.103058,666.888306 488.235321,665.921326 496.377991,665.123413 
	C488.164581,683.755066 479.951233,702.386719 471.468994,721.261719 
z"/>
<path fill="#028AB8" opacity="1.000000" stroke="none" 
	d="
M720.399536,527.035278 
	C715.527649,525.847168 711.000977,524.014648 706.295837,523.109436 
	C701.361755,522.160217 696.504761,521.660889 693.984253,516.023682 
	C699.710144,502.081696 705.750977,488.326416 712.027100,474.294434 
	C716.787048,477.944214 721.674133,478.429321 727.172424,476.069885 
	C732.101562,473.954651 736.312744,477.018250 740.899597,478.924255 
	C736.433960,490.230499 731.768066,501.239655 727.060425,512.230957 
	C724.972656,517.105469 722.800232,521.943726 720.399536,527.035278 
z"/>
<path fill="#059FB7" opacity="1.000000" stroke="none" 
	d="
M418.594849,478.867706 
	C422.839813,469.109985 427.133850,459.373138 431.297729,449.580902 
	C432.434296,446.908020 434.117432,445.997528 437.036346,446.057648 
	C446.182556,446.246063 455.335114,446.126953 465.475311,446.126953 
	C458.373993,461.819183 451.554565,476.888550 444.306519,491.846130 
	C435.450256,487.445496 427.022552,483.156586 418.594849,478.867706 
z"/>
<path fill="#0256C1" opacity="1.000000" stroke="none" 
	d="
M339.741730,655.903015 
	C345.934357,641.993225 352.126984,628.083374 358.746094,614.286255 
	C361.254669,615.603027 363.210876,617.457703 365.442352,617.889160 
	C372.144379,619.185181 378.839508,620.223999 384.078064,625.167786 
	C379.387970,635.691589 374.713165,646.222351 369.972260,656.723267 
	C369.666382,657.400757 368.850861,657.848083 367.733551,658.878540 
	C365.904663,659.570435 364.622284,659.876770 363.323303,659.986816 
	C356.788940,660.540710 350.254547,661.128174 343.707764,661.459717 
	C342.862213,661.502563 341.734375,660.271729 341.116974,659.370789 
	C340.431519,658.370422 340.181396,657.071777 339.741730,655.903015 
z"/>
<path fill="#0B50C5" opacity="1.000000" stroke="none" 
	d="
M339.520721,656.256775 
	C340.181396,657.071777 340.431519,658.370422 341.116974,659.370789 
	C341.734375,660.271729 342.862213,661.502563 343.707764,661.459717 
	C350.254547,661.128174 356.788940,660.540710 363.323303,659.986816 
	C364.622284,659.876770 365.904663,659.570435 367.574158,659.186707 
	C367.593353,660.512695 367.233063,662.006531 366.701355,663.771729 
	C366.017242,665.614075 365.078430,667.180115 365.060089,668.756897 
	C364.928864,680.037720 364.994171,691.320679 364.971191,702.602966 
	C364.967987,704.182922 364.823669,705.762695 364.700470,708.226990 
	C363.286072,706.694885 362.511108,705.855408 361.736145,705.015991 
	C361.776031,705.514099 361.815887,706.012268 361.855774,706.510437 
	C356.005463,708.339111 350.155151,710.167786 344.412384,711.962891 
	C342.817871,710.467468 341.427155,709.163269 339.639923,707.748047 
	C339.262177,690.628235 339.280945,673.619385 339.520721,656.256775 
z"/>
<path fill="#0256C1" opacity="1.000000" stroke="none" 
	d="
M496.625732,664.895752 
	C488.235321,665.921326 480.103058,666.888306 471.942200,667.390808 
	C470.049774,667.507324 468.059814,666.039856 465.949585,664.947144 
	C471.358002,651.892639 476.931580,639.192200 483.019745,626.440918 
	C484.813995,629.472961 486.409210,630.464966 489.893097,628.704346 
	C497.153320,625.035217 504.600800,627.510681 511.943451,629.002625 
	C510.284027,633.465027 508.803528,638.004272 506.925293,642.372620 
	C503.705597,649.860779 500.237366,657.242004 496.625732,664.895752 
z"/>
<path fill="#0274BC" opacity="1.000000" stroke="none" 
	d="
M373.915436,579.974854 
	C379.075317,568.119995 384.235199,556.265198 389.951447,544.390259 
	C392.465118,545.579712 394.306641,547.532532 396.401550,547.858948 
	C402.643463,548.831421 408.984833,549.165283 415.037842,549.725464 
	C416.501495,548.894409 418.159485,547.953003 419.817505,547.011658 
	C413.435944,561.271118 407.054321,575.530640 400.208923,589.712769 
	C396.099548,587.478821 392.381744,583.455627 388.825043,583.593323 
	C383.180328,583.811768 378.242676,584.012329 373.915436,579.974854 
z"/>
<path fill="#02A4B6" opacity="1.000000" stroke="none" 
	d="
M338.733459,410.371521 
	C344.078156,410.667389 349.314941,411.310547 354.542938,412.018494 
	C361.241760,412.925537 362.964264,418.587341 365.697296,423.754578 
	C366.021606,428.690155 366.084503,433.391815 365.767700,438.851074 
	C365.387939,446.254059 365.387939,452.899445 365.387939,458.708679 
	C358.919922,457.319153 353.594543,456.064392 348.221802,455.063812 
	C345.160309,454.493652 342.021576,454.338501 338.917603,453.996490 
	C338.818970,439.580170 338.720337,425.163879 338.733459,410.371521 
z"/>
<path fill="#026FBE" opacity="1.000000" stroke="none" 
	d="
M512.757446,558.252930 
	C516.034973,559.853027 519.371765,561.366577 522.052002,563.650574 
	C525.568604,566.647278 528.557983,570.260742 531.794495,573.589111 
	C532.904602,574.730774 534.076172,575.812683 535.560364,576.963745 
	C532.159546,585.599365 528.417969,594.193054 524.209717,602.730896 
	C521.907288,603.900208 520.071472,605.125366 518.658508,606.068359 
	C513.405334,604.086731 507.940918,602.176575 502.611420,599.944336 
	C500.322723,598.985718 498.314270,597.358154 496.178497,596.034546 
	C501.627167,583.526062 507.075867,571.017639 512.757446,558.252930 
z"/>
<path fill="#0266C0" opacity="1.000000" stroke="none" 
	d="
M373.656891,580.198730 
	C378.242676,584.012329 383.180328,583.811768 388.825043,583.593323 
	C392.381744,583.455627 396.099548,587.478821 399.935242,589.934326 
	C394.954376,601.726257 389.783325,613.219299 384.345184,624.940063 
	C378.839508,620.223999 372.144379,619.185181 365.442352,617.889160 
	C363.210876,617.457703 361.254669,615.603027 359.010773,614.050354 
	C363.698730,602.608704 368.548523,591.515686 373.656891,580.198730 
z"/>
<path fill="#0284BB" opacity="1.000000" stroke="none" 
	d="
M420.017212,546.710083 
	C418.159485,547.953003 416.501495,548.894409 415.037842,549.725464 
	C408.984833,549.165283 402.643463,548.831421 396.401550,547.858948 
	C394.306641,547.532532 392.465118,545.579712 390.210175,544.163208 
	C394.436859,533.464294 398.961151,522.972412 404.112793,512.280640 
	C410.428375,513.388306 416.145325,514.584839 421.794373,516.044189 
	C425.306549,516.951416 428.716034,518.256409 432.171631,519.382874 
	C428.186737,528.391418 424.201843,537.399902 420.017212,546.710083 
z"/>
<path fill="#0198B8" opacity="1.000000" stroke="none" 
	d="
M338.815125,454.456177 
	C342.021576,454.338501 345.160309,454.493652 348.221802,455.063812 
	C353.594543,456.064392 358.919922,457.319153 365.387939,458.708679 
	C365.387939,452.899445 365.387939,446.254059 365.677917,439.310730 
	C366.008087,457.701630 366.048309,476.390442 365.645264,495.496429 
	C361.798004,494.775452 358.382538,492.676819 354.992584,492.717285 
	C349.487915,492.782959 343.915955,495.148956 338.890564,490.995514 
	C338.831268,478.968964 338.771973,466.942383 338.815125,454.456177 
z"/>
<path fill="#0292BB" opacity="1.000000" stroke="none" 
	d="
M432.434967,519.136353 
	C428.716034,518.256409 425.306549,516.951416 421.794373,516.044189 
	C416.145325,514.584839 410.428375,513.388306 404.367188,512.040588 
	C408.699493,501.113983 413.404694,490.227509 418.352356,479.104370 
	C427.022552,483.156586 435.450256,487.445496 444.038574,492.085144 
	C440.365570,501.253815 436.531952,510.071808 432.434967,519.136353 
z"/>
<path fill="#03BCAD" opacity="1.000000" stroke="none" 
	d="
M788.510254,357.852417 
	C787.376892,357.438782 785.960266,356.963593 785.702881,356.130371 
	C784.088623,350.904175 779.979858,348.898315 775.358154,347.040558 
	C772.218933,345.778656 770.405518,346.124054 769.016052,349.235535 
	C768.511353,350.365601 767.450867,351.247406 766.826416,352.017426 
	C765.634583,349.653625 764.720764,347.841278 763.430542,346.022888 
	C766.505554,338.121765 769.957153,330.226654 773.887451,322.386597 
	C778.364990,321.961395 782.515991,320.576508 786.325928,321.217987 
	C791.718079,322.125793 798.215210,320.458862 802.119751,326.253296 
	C797.667480,336.710632 793.215210,347.167999 788.510254,357.852417 
z"/>
<path fill="#0266C0" opacity="1.000000" stroke="none" 
	d="
M495.960022,596.315186 
	C498.314270,597.358154 500.322723,598.985718 502.611420,599.944336 
	C507.940918,602.176575 513.405334,604.086731 518.658508,606.068359 
	C520.071472,605.125366 521.907288,603.900208 523.947388,602.969666 
	C520.202637,611.645264 516.253662,620.026245 512.124084,628.704956 
	C504.600800,627.510681 497.153320,625.035217 489.893097,628.704346 
	C486.409210,630.464966 484.813995,629.472961 483.253723,626.188538 
	C487.229218,616.190002 491.485382,606.392944 495.960022,596.315186 
z"/>
<path fill="#018CBB" opacity="1.000000" stroke="none" 
	d="
M338.781250,491.454163 
	C343.915955,495.148956 349.487915,492.782959 354.992584,492.717285 
	C358.382538,492.676819 361.798004,494.775452 365.556854,495.958038 
	C365.954132,505.696014 365.996582,515.389587 365.562897,525.534546 
	C361.580505,525.299500 358.077179,524.597717 354.567291,523.930359 
	C349.358948,522.940063 344.145996,521.974060 338.934998,520.997742 
	C338.847321,511.302765 338.759613,501.607788 338.781250,491.454163 
z"/>
<path fill="#03BCAD" opacity="1.000000" stroke="none" 
	d="
M233.136932,343.543365 
	C226.362015,345.553314 219.878891,345.640076 213.333511,342.877808 
	C211.209991,341.981659 208.318298,342.905731 205.366577,342.999268 
	C204.883072,335.307495 204.810974,327.613708 205.225006,319.454681 
	C206.783493,318.376190 207.833679,317.719238 208.933716,317.160400 
	C210.419617,316.405518 211.984802,315.043732 213.444489,315.131470 
	C219.972656,315.523926 226.475418,316.338837 232.987366,317.001221 
	C233.070557,325.695160 233.153748,334.389099 233.136932,343.543365 
z"/>
<path fill="#017DBE" opacity="1.000000" stroke="none" 
	d="
M338.830688,521.456299 
	C344.145996,521.974060 349.358948,522.940063 354.567291,523.930359 
	C358.077179,524.597717 361.580505,525.299500 365.477325,525.996826 
	C367.885101,535.604736 363.733459,543.595581 358.825592,551.913147 
	C358.214569,552.569275 358.102905,552.845337 358.084473,553.159058 
	C358.084473,553.159058 358.064240,553.070374 357.737000,553.083374 
	C356.213776,553.644470 354.759399,553.925781 353.868561,554.788818 
	C350.747406,557.812378 347.291779,556.927490 344.220825,555.357788 
	C341.130524,553.778198 339.625824,550.943298 339.896729,547.098450 
	C340.084930,544.427124 339.296295,541.686890 338.944092,538.977478 
	C338.871521,533.289917 338.798950,527.602356 338.830688,521.456299 
z"/>
<path fill="#00C4A8" opacity="1.000000" stroke="none" 
	d="
M233.079620,316.540070 
	C226.475418,316.338837 219.972656,315.523926 213.444489,315.131470 
	C211.984802,315.043732 210.419617,316.405518 208.933716,317.160400 
	C207.833679,317.719238 206.783493,318.376190 205.326279,318.995056 
	C204.852600,311.972656 204.763733,304.944611 204.770660,297.455536 
	C206.158981,296.472412 207.625107,296.182373 208.704041,295.374908 
	C210.402039,294.104156 211.768814,291.308411 213.399017,291.210571 
	C221.997025,290.694427 230.855408,284.153107 239.205719,291.873688 
	C239.543198,292.185699 239.675186,292.719971 239.950073,293.495850 
	C237.905792,293.974335 235.814362,294.107635 233.171860,294.276062 
	C233.171860,301.686066 233.171860,308.882507 233.079620,316.540070 
z"/>
<path fill="#04C8AA" opacity="1.000000" stroke="none" 
	d="
M802.381104,326.012634 
	C798.215210,320.458862 791.718079,322.125793 786.325928,321.217987 
	C782.515991,320.576508 778.364990,321.961395 774.143677,322.147644 
	C777.734802,312.800690 781.548401,303.747681 785.271912,294.309875 
	C794.456421,296.574646 803.976440,298.781891 809.978149,307.919220 
	C807.633179,314.082367 805.137756,319.927155 802.381104,326.012634 
z"/>
<path fill="#05ADB7" opacity="1.000000" stroke="none" 
	d="
M454.724243,392.217163 
	C457.251526,392.372345 459.514069,393.038635 461.786011,393.072327 
	C468.037628,393.165161 471.788788,397.644836 476.588562,400.944153 
	C464.518005,410.268097 452.105865,419.561066 439.693756,428.854034 
	C439.238831,428.513580 438.783936,428.173096 438.329010,427.832642 
	C443.707275,416.034973 449.085571,404.237335 454.724243,392.217163 
z"/>
<path fill="#02A4B6" opacity="1.000000" stroke="none" 
	d="
M204.914124,379.444092 
	C214.650986,377.433014 224.301926,378.495453 233.948303,378.928253 
	C241.129211,379.250366 248.307434,379.635406 255.485001,380.026154 
	C256.298004,380.070435 257.290405,380.084229 257.876221,380.533691 
	C263.983307,385.219391 271.095428,383.939972 277.960754,383.986115 
	C297.397949,384.116821 316.835632,384.176483 336.602356,384.502258 
	C308.858826,384.805817 280.786072,384.883606 252.713226,384.931671 
	C236.951218,384.958649 221.189133,384.936554 205.042953,384.936554 
	C204.960251,383.067017 204.889877,381.476379 204.914124,379.444092 
z"/>
<path fill="#026FBE" opacity="1.000000" stroke="none" 
	d="
M338.814514,539.360962 
	C339.296295,541.686890 340.084930,544.427124 339.896729,547.098450 
	C339.625824,550.943298 341.130524,553.778198 344.220825,555.357788 
	C347.291779,556.927490 350.747406,557.812378 353.868561,554.788818 
	C354.759399,553.925781 356.213776,553.644470 357.780762,553.095825 
	C352.026276,565.986694 345.900757,578.878235 339.775269,591.769714 
	C339.411835,591.671326 339.048401,591.572937 338.684967,591.474548 
	C338.684967,574.231201 338.684967,556.987854 338.814514,539.360962 
z"/>
<path fill="#04C8AA" opacity="1.000000" stroke="none" 
	d="
M758.464294,293.859680 
	C762.582703,289.182739 768.661560,290.417328 774.111145,290.222168 
	C777.670105,290.094757 781.305481,292.100922 784.974304,293.522827 
	C776.337280,293.907349 767.632568,293.920471 758.464294,293.859680 
z"/>
<path fill="#0B50C5" opacity="1.000000" stroke="none" 
	d="
M390.477448,754.903076 
	C390.604858,754.561584 391.194366,754.069824 391.782898,754.070984 
	C411.962006,754.112183 432.141022,754.199890 452.645142,754.532227 
	C432.293182,754.849854 411.616119,754.916199 390.477448,754.903076 
z"/>
<path fill="#0B50C5" opacity="1.000000" stroke="none" 
	d="
M366.307251,713.124084 
	C366.091797,702.334290 366.067993,691.132629 366.184998,679.566040 
	C366.383484,690.371460 366.441193,701.541870 366.307251,713.124084 
z"/>
<path fill="#0B50C5" opacity="1.000000" stroke="none" 
	d="
M354.477173,754.892395 
	C359.789001,754.643860 365.561432,754.476685 371.654724,754.566589 
	C366.296326,754.873718 360.617035,754.923767 354.477173,754.892395 
z"/>
<path fill="#0B50C5" opacity="1.000000" stroke="none" 
	d="
M366.459198,727.402710 
	C366.209991,724.683899 366.117859,721.558777 366.070801,717.952515 
	C366.282684,720.646423 366.449463,723.821411 366.459198,727.402710 
z"/>
<path fill="#0B50C5" opacity="1.000000" stroke="none" 
	d="
M436.576935,729.028320 
	C435.533142,729.217285 434.091248,729.517395 432.367859,729.624451 
	C433.450531,729.334045 434.814697,729.236816 436.576935,729.028320 
z"/>
<path fill="#0B50C5" opacity="1.000000" stroke="none" 
	d="
M339.341248,754.309570 
	C340.070465,754.110291 340.828156,754.244934 341.780884,754.596313 
	C341.107208,754.756531 340.238495,754.700012 339.341248,754.309570 
z"/>
<path fill="#0249C2" opacity="1.000000" stroke="none" 
	d="
M470.308533,724.134033 
	C470.071564,723.934143 470.161011,723.625916 470.551392,723.191895 
	C470.664825,723.352478 470.592407,723.672363 470.308533,724.134033 
z"/>
<path fill="#0B50C5" opacity="1.000000" stroke="none" 
	d="
M456.277710,754.813965 
	C456.143524,754.484192 456.352661,754.270569 456.852051,754.060974 
	C456.895844,754.282104 456.722107,754.570496 456.277710,754.813965 
z"/>
<path fill="#0B50C5" opacity="1.000000" stroke="none" 
	d="
M457.485107,753.427917 
	C457.316345,753.222351 457.395905,752.817322 457.715851,752.206848 
	C457.881927,752.410400 457.807678,752.819458 457.485107,753.427917 
z"/>
<path fill="#0B50C5" opacity="1.000000" stroke="none" 
	d="
M339.202301,751.258911 
	C339.635254,751.199280 339.727386,751.457275 339.419617,751.884399 
	C339.231934,751.816528 339.179199,751.657471 339.202301,751.258911 
z"/>
<path fill="#0B50C5" opacity="1.000000" stroke="none" 
	d="
M370.733643,729.310303 
	C370.965149,729.398865 370.637787,729.695374 370.637787,729.695374 
	C370.637787,729.695374 370.212585,729.635376 370.123657,729.511108 
	C370.034698,729.386841 370.502136,729.221741 370.733643,729.310303 
z"/>
<path fill="#0249C2" opacity="1.000000" stroke="none" 
	d="
M439.621735,722.709961 
	C439.759705,722.897217 439.665863,723.255127 439.355591,723.793884 
	C439.222748,723.610046 439.306335,723.245361 439.621735,722.709961 
z"/>
<path fill="#026FBE" opacity="1.000000" stroke="none" 
	d="
M358.296265,553.048462 
	C358.102905,552.845337 358.214569,552.569275 358.597961,552.192993 
	C358.841400,552.396118 358.751892,552.690430 358.296265,553.048462 
z"/>
</svg>